 <!DOCTYPE svg PUBLIC "-//W3C//DTD SVG 1.1//EN" "http://www.w3.org/Graphics/SVG/1.1/DTD/svg11.dtd">
<svg id="e4ea2ec6-5455-482d-ae43-1635dd71d434" data-name="Layer 1" xmlns="http://www.w3.org/2000/svg" xmlns:xlink="http://www.w3.org/1999/xlink" width="865.76" height="682.89" viewBox="0 0 865.76 682.89">
<defs>
<clipPath id="ef9765bb-8311-4832-8a22-924dcfc60f0a">
<rect id="b91452a0-da00-4738-9418-68155fc5db7f" data-name="SVGID" x="89.56" y="468.06" width="61.82" height="47.35" rx="11.29" fill="none"/>
</clipPath>
<clipPath id="a8502a9b-a77b-474e-be9e-ec9d3af87016">
<polygon id="e7ce5df8-6e29-4419-a6a9-036c3c2fef04" data-name="SVGID" points="160.54 420.48 162.34 409.89 148.69 398.12 144.84 415.85 160.54 420.48" fill="none"/>
</clipPath>
<clipPath id="b2a40089-9d0e-40ea-8999-6e17d8ce5b95">
<path id="faa96e83-ab94-48df-8124-db55935245db" data-name="SVGID" d="M171.55,424.26l27.33.57,10.26-28.5,9,3.18s-4.62,36.08-9.25,38.23-32.82,5.2-32.82,5.2S167.32,433.26,171.55,424.26Z" fill="none"/>
</clipPath>
<clipPath id="ab52d9d9-3921-484f-901f-ff7a5f10d71e">
<path id="a417e9da-0a21-4912-9af3-06595b733465" data-name="SVGID" d="M120.67,424.86l8.53,76.33-5.43,22.95s5.72,1.29,21.56-3.7S178.11,517,178.11,517s7-50.82,4.21-66.7a63.52,63.52,0,0,0-10.75-26s-30.41-13.3-49-3.13A3.75,3.75,0,0,0,120.67,424.86Z" fill="none"/>
</clipPath>
<clipPath id="f7e45956-7fdc-468e-9ca9-0d3ae9b0b66b">
<path id="b7220696-ff05-46ce-932d-31cee05728f5" data-name="SVGID" d="M424.08,488,444.7,565.9s.29,8.59,4.29,15.18l5.63,65.6s4.29,6.58,19.75,0c0,0,.68-47-5.05-76.2l-4.86-55.64a84.08,84.08,0,0,0-.86-26.25Z" fill="none"/>
</clipPath>
<clipPath id="acb2851e-f025-4887-9bcf-425dd905751b">
<path id="ebc7cf0c-a756-42ff-977c-64a109c86b03" data-name="SVGID" d="M470.9,407.64s21.63,44.52,17.05,51.42-24.34,29.5-24.34,29.5l-8-9.16,16-27.22-8.31-16.88S459.6,422.06,470.9,407.64Z" fill="none"/>
</clipPath>
<clipPath id="a0368c2b-f4d1-4dd3-a123-e240c7a3a0cc">
<path id="b3da0bc1-7cdc-431a-964d-820f8b28d5ed" data-name="SVGID" d="M402.62,487.52l4.27-35.13-1.73-52.68a10.3,10.3,0,0,1,7.47-10.31c14.55-4.22,45.69-9.39,58.27,18.26a12.49,12.49,0,0,1,1,7.38l-8.56,49.19,2.29,26.84S437.74,511.57,402.62,487.52Z" fill="none"/>
</clipPath>
<style xmlns="http://www.w3.org/1999/xhtml">*, ::after, ::before { box-sizing: border-box; }
img, svg { vertical-align: middle; }
</style>
<style xmlns="http://www.w3.org/1999/xhtml">*, body, html { -webkit-font-smoothing: antialiased; }
img, svg { max-width: 100%; }
</style>
</defs>
<rect x="37.98" y="18.4" width="642.32" height="438.09" fill="#bcbec0"/>
<rect x="72.9" y="41.68" width="572.48" height="390.47" fill="#fff"/>
<rect x="207.11" y="76.6" width="2.47" height="322.75" fill="#ccc"/>
<rect x="349.97" y="76.6" width="2.47" height="322.75" fill="#ccc"/>
<rect x="501.29" y="76.6" width="2.47" height="322.75" fill="#ccc"/>
<rect x="93.01" y="127.21" width="533.33" height="2.47" fill="#ccc"/>
<rect x="118.4" y="161.25" width="26.98" height="26.98" fill="#2f2e41" data-secondary="true"/>
<rect x="157.91" y="203.4" width="26.98" height="26.98" fill="#2f2e41" data-secondary="true"/>
<rect x="244.5" y="151.38" width="26.98" height="26.98" fill="#2f2e41" data-secondary="true"/>
<rect x="292.12" y="188.06" width="26.98" height="26.98" fill="#2f2e41" data-secondary="true"/>
<rect x="247.68" y="226.95" width="26.98" height="26.98" fill="#2f2e41" data-secondary="true"/>
<rect x="320.52" y="253.93" width="26.98" height="26.98" fill="#2f2e41" data-secondary="true"/>
<rect x="409.93" y="182.24" width="26.98" height="26.98" fill="#2f2e41" data-secondary="true"/>
<rect x="522.63" y="211.69" width="26.98" height="26.98" fill="#2f2e41" data-secondary="true"/>
<rect x="562.14" y="180.83" width="26.98" height="26.98" fill="#2f2e41" data-secondary="true"/>
<rect x="455.61" y="285.94" width="26.98" height="26.98" fill="#2f2e41" data-secondary="true"/>
<rect x="307.02" y="381.51" width="26.98" height="26.98" fill="#3f3d56"/>
<path d="M199.16,652.71l-34.25-3.85V571.37l17.57-10.56v-3.87h-47.1v3.84L153,571.31v77.55l-34.25,3.85a6.31,6.31,0,0,0-5.6,6.26v3.18h91.68V659A6.3,6.3,0,0,0,199.16,652.71Z" fill="#d1d3d4"/>
<rect x="115.78" y="511.53" width="9.36" height="42.53" fill="#d1d3d4"/>
<rect x="103.31" y="545.25" width="111.27" height="17.62" rx="5.88" fill="#bcbec0"/>
<rect x="89.56" y="468.06" width="61.82" height="47.35" rx="11.29" fill="#bcbec0"/>
<g clip-path="url(#ef9765bb-8311-4832-8a22-924dcfc60f0a)">
<g opacity="0.2">
<rect x="99.87" y="468.06" width="61.82" height="47.35" rx="11.29" opacity="0.5" style="isolation:isolate"/>
</g>
</g>
<path d="M194.81,542.59a39.31,39.31,0,0,1,9.65-5.66" fill="none" stroke="#263238" stroke-linecap="round" stroke-linejoin="round" stroke-width="0.75"/>
<path d="M200.63,533.72s-9.84,8.06-7.84,9.27" fill="none" stroke="#263238" stroke-linecap="round" stroke-linejoin="round" stroke-width="0.75"/>
<path d="M231.74,609.08l3,21.51s-5.71,4.67-6,17.37l10.07,3.59,2.72-3.59,9,9.37s15.92,7.16,18.09,2.37-6.61-8.33-14-18.86c-1.93-2.72-8.38-10.48-8.38-10.48l.64-22.45Z" fill="#4556c4" data-primary="true"/>
<path d="M154.87,517.78s84.26-5.64,88.1,6.26,5.65,50,5.84,65.15-1,34.26-1,34.26a26.68,26.68,0,0,1-15.53,0s-3.71-22-6.38-32.65-5.51-24.93-3.89-47.5c0,0-80.76,12.21-81.2-2S154.87,517.78,154.87,517.78Z" fill="#2f2e41" data-secondary="true"/>
<path d="M249.76,618.61l-.58,5.7s-9.64,5.17-18.12.39l-1.77-5.6S235,623,249.76,618.61Z" fill="#2f2e41" data-secondary="true"/>
<path d="M249.76,618.61l-.58,5.7s-9.64,5.17-18.12.39l-1.77-5.6S235,623,249.76,618.61Z" opacity="0.2" style="isolation:isolate"/>
<path d="M170.49,594.06l-9.41,19.58s-7.34.71-14.63,11.12l6.39,8.56,4.25-1.47,2.28,12.79s9.26,14.79,13.72,12-.85-10.6-1.18-23.48c-.09-3.35-1.15-13.37-1.15-13.37l13-18.31Z" fill="#4556c4" data-primary="true"/>
<path d="M125.88,521s-12,23.89,3.32,26,62-.59,62-.59a236.17,236.17,0,0,0-15.53,29.28c-6,14.31-12.09,29-12.09,29s2.62,7.06,13.3,8.47c0,0,8.67-13.57,27.62-34.67s24.2-42.35,20.17-49.61-25-11.18-58.88-12.74Z" fill="#2f2e41" data-secondary="true"/>
<path d="M180.46,611.13l-3.62,4.44s-10.86-1-15.32-9.68l1.61-5.64S165.75,606.69,180.46,611.13Z" fill="#2f2e41" data-secondary="true"/>
<path d="M180.46,611.13l-3.62,4.44s-10.86-1-15.32-9.68l1.61-5.64S165.75,606.69,180.46,611.13Z" opacity="0.2" style="isolation:isolate"/>
<path d="M164.54,378.09s10.39-5.16-.55-12-30.07,12-30.07,12l-1.85,8.84s.8,7,3.33,11.12c2,3.3,5.66,3.32,7.37,6.59,2.62,5,1.75,8.49,4.46,6.32,6.67-5.43,8.83-26.88,8.83-26.88Z" fill="#2f2e41" data-secondary="true"/>
<polygon points="160.54 420.48 162.34 409.89 148.69 398.12 144.84 415.85 160.54 420.48" fill="#f9b499"/>
<g clip-path="url(#a8502a9b-a77b-474e-be9e-ec9d3af87016)">
<path d="M147.36,399.36s1.11,6.1,4.44,9.95,12,8.4,12,8.4l.74-7.28L151,400.09l-2.28-1.94Z" fill="#f4a48e"/>
</g>
<path d="M164.88,374.36s6.2,10.86,6.07,14c0,0,8.14,21.38,0,24.89-6.33,2.72-14.27-2.58-17.37-5a8.42,8.42,0,0,1-2.11-2.45l-2.64-4.65s-3.26.94-6.23-3.3.08-8.25,3.35-5.75c0,0,2.47-5.12,1.7-7.94s2.93-2.87,3.09-5.87C150.78,378.29,159.59,378,164.88,374.36Z" fill="#f9b499"/>
<path d="M136.94,378.46s-1-18-15-10.86-.63,28.36-4.82,33,3.83,2.58,4.82-.8.17,5.63,2.11,6,2.26-7.74,4.08-7.74-.48,5,1,5.58,4.83-9.85,5.8-15.6A89,89,0,0,1,136.94,378.46Z" fill="#2f2e41" data-secondary="true"/>
<path d="M136.94,376s-4.9,5.43-3,19C134,395,124.52,381.23,136.94,376Z" fill="#4556c4" data-primary="true"/>
<path d="M148.54,378.09s5.43,1.51,6.18,6S158,373.79,148.54,378.09Z" fill="#2f2e41" data-secondary="true"/>
<path d="M166.59,377.13s5.91-1.78,7.67,2.09C174.22,379.22,173.38,369.89,166.59,377.13Z" fill="#2f2e41" data-secondary="true"/>
<path d="M213.2,373.25c1.19-.33,2.43,1.22,2.43,1.22,1.27-2.17,3.31,1.44,3.31,1.44,1.71-2.09,2.58,2.48,2.58,2.48s1.8-.42,1.58,1.87c-.28,3-3.78,9.91-3.78,9.91L217,401.84l-8.54-1,2.72-11.2-2.56-4.91a14.12,14.12,0,0,1-1.35-6.33C207.71,375.62,212,373.56,213.2,373.25Z" fill="#f9b499"/>
<path d="M171.55,424.26l27.33.57,10.26-28.5,9,3.18s-4.62,36.08-9.25,38.23-32.82,5.2-32.82,5.2S167.32,433.26,171.55,424.26Z" fill="#4556c4" data-primary="true"/>
<g clip-path="url(#b2a40089-9d0e-40ea-8999-6e17d8ce5b95)">
<path d="M181.25,432.45a18.53,18.53,0,0,0-11.56-9c4.19,2.72,6.69,8.15,8.33,12.58a46.16,46.16,0,0,1,2.18,6.38c6.13-.48,10.93-1.33,17.32-2.22C193.26,439.94,184.67,438.34,181.25,432.45Z" opacity="0.2" style="isolation:isolate"/>
</g>
<polygon points="207.52 398.53 218.16 402.15 218.88 397.31 208.81 394.11 207.52 398.53" fill="#4556c4" data-primary="true"/>
<polygon points="207.52 398.53 218.16 402.15 218.88 397.31 208.81 394.11 207.52 398.53" opacity="0.12" style="isolation:isolate"/>
<rect x="203.5" y="354.86" width="26.98" height="26.98" fill="#2f2e41" data-secondary="true"/>
<path d="M208.07,383.27a7.1,7.1,0,0,1,1.49-5.84,1.61,1.61,0,0,1,1.81-1.4,1.64,1.64,0,0,1,1,.51c2.19,1.62,5.42,2.15,5.06,3.15s-1.21,1.62-4.36.34c0,0-.55.34.23,1.36a8.16,8.16,0,0,1,2.09,4" fill="#f9b499"/>
<path d="M120.67,424.86l8.53,76.33-5.43,22.95s5.72,1.29,21.56-3.7S178.11,517,178.11,517s7-50.82,4.21-66.7a63.52,63.52,0,0,0-10.75-26s-30.41-13.3-49-3.13A3.75,3.75,0,0,0,120.67,424.86Z" fill="#4556c4" data-primary="true"/>
<g clip-path="url(#ab52d9d9-3921-484f-901f-ff7a5f10d71e)">
<path d="M136.94,469c.64-9.5-3.6-25.12-3.6-25.12l-3.16.42a179.09,179.09,0,0,0,.24,27.6c.33,3.68,2.27,7.51,2.15,11.16-.11,3.24-2,5.43-3.54,8.14-.28.47-.52.93-.79,1.36.15,1.35.69,2.75.46,4.17-.18,1.72.81,2.79.5,4.48a11.26,11.26,0,0,1-.74,3.11c-1,4-2.09,7.89-2.83,11.92a72.67,72.67,0,0,0-1.67,8.15A86.16,86.16,0,0,0,141.69,522a34.16,34.16,0,0,0,6.91-2.49c-22,3.25-14.44-11-13.78-16.87s21.88-13.11,22.94-19.55S136.29,478.44,136.94,469Z" opacity="0.12" style="isolation:isolate"/>
</g>
<path d="M139.91,417.71l4-7.82A134.15,134.15,0,0,0,158,413.8c7.7,1.68,5.84,3.91,5.84,3.91l-2,5.93S158.8,426.65,139.91,417.71Z" fill="#4556c4" data-primary="true"/>
<path d="M139.91,417.71l4-7.82A134.15,134.15,0,0,0,158,413.8c7.7,1.68,5.84,3.91,5.84,3.91l-2,5.93S158.8,426.65,139.91,417.71Z" opacity="0.2"/>
<path d="M125,476.87s4.35-3.44,5.42-2-1.22,1-2.94,6" fill="none" stroke="#263238" stroke-linecap="round" stroke-linejoin="round"/>
<rect x="160.18" y="483.91" width="26.98" height="26.98" transform="translate(222.37 -27.19) rotate(24.55)" fill="#2f2e41" data-secondary="true"/>
<path d="M151.26,491.61l10.28,7.5s11.67,0,13.79,3.19,2.72,6.79.82,8.08,1-3.45-4.29-5.85c0,0,2.71,12.31-2,9.68,0,0-.61,2.09-2.39.17a6.75,6.75,0,0,0-.65-4.5,3.2,3.2,0,0,0-2.48-2s3.31,4.52,1.13,5.76c-1.77,1-2.72-5.51-5.08-6.25a7.23,7.23,0,0,1-6-4.07l-8-4.33Z" fill="#f9b499"/>
<path d="M122.89,422.76a1.16,1.16,0,0,0-2,.27c-2.24,5.75-8.24,25-5,59.07,0,0,2.6,7,33,20.27l5.8-9L132.2,475.13s3-24.43.72-33.55" fill="#4556c4" data-primary="true"/>
<polygon points="153.37 491.35 146.38 502.67 151.87 504.63 157.76 494.74 153.37 491.35" fill="#4556c4" data-primary="true"/>
<polygon points="153.37 491.35 146.38 502.67 151.87 504.63 157.76 494.74 153.37 491.35" opacity="0.12" style="isolation:isolate"/>
<path d="M565.91,429.11l-44.54-18.78-8.32-9.75s-9.9-4.22-12.72-4.22,1.06,3.88,3.17,4.59a51.28,51.28,0,0,1,6,2.83l.71,5.64h-8.08c-1.42,0-.71,2.11-.71,2.11l8.83,2.12s2.47,1.76,3.54,1.76,5.53,2.39,5.53,2.39l43.06,29.79a8.62,8.62,0,0,0,7.55.88l13.47-4.81,10.78-32.88Z" fill="#f9b499"/>
<path d="M594.18,410.78l-28.27,18.3-17.8-7.48-4.42,12.86,18.66,13.11a8.58,8.58,0,0,0,7.55.87l13.5-4.78Z" fill="#4556c4" data-primary="true"/>
<path d="M618.07,645.8s-12.36,9.28-15.83,11.2-4.22,5-1.16,5,28.2.77,31.66-1.54S631.2,647,631.2,647,621.93,645.8,618.07,645.8Z" fill="#4556c4" data-primary="true"/>
<path d="M632.74,660.48c1-.65,1.28-2,1.21-3.66a151.27,151.27,0,0,1-34.06,2.11c-1.25,1.58-1,3.1,1.18,3.1C604.16,662,629.27,662.79,632.74,660.48Z" fill="#3f3d56"/>
<path d="M584.89,473.15S571.32,536.07,570.55,550,569,627.27,569,630.74v11.2l12.36,4.63s5.8-33.25,7-43.68,1.93-22,3.47-27.44,4.63-27.44,5.8-32.05,3-19.29,2.11-45.71S588.14,466.66,584.89,473.15Z" fill="#2f2e41" data-secondary="true"/>
<path d="M582.58,468.06s.45,20.85.91,41.24a331.15,331.15,0,0,0,6.77,59.22c3.86,18.54,18.92,58.8,20.47,65.36s6.95,13.47,6.95,13.47,8.44.77,13.52-.39c0,0-5-27.06-5.79-41.74s-10-35.54-12-40.57,6.22-40.52,6.22-40.52,11.13-20.39,8.34-33.37a41.94,41.94,0,0,0-10.66-20.39S589.52,474.11,582.58,468.06Z" fill="#2f2e41" data-secondary="true"/>
<path d="M614.59,399.33s-4.64-3.47-14.67,3.87-17.76,22.56-18.78,30.26c-1.06,8.12-1.13,28.86-1.13,33.5s-.37,7.49,5.19,9.35,31.67-.74,35.33-2.6-2.33-8.12-1.56-16.62,6.62-23.87,6.23-35.89S616.12,400.87,614.59,399.33Z" fill="#4556c4" data-primary="true"/>
<path d="M590.76,365.92a32,32,0,0,0-1.2,17.78,31.68,31.68,0,0,0,2.29,6.51l.28.55c1.57,3.07,7,.46,8.18.08s-.38,11.19-.38,12.36,11.61-.39,13.13-.39.77-13.91,2.31-18.16,6.58-9.66.39-18.92-16.62-17-20.1-10.43c0,0-4.89,6.72-4.89,10.58Z" fill="#f9b499"/>
<path d="M607.29,397.31s-10,3.6-11.62,6-2.8,6.42-.4,6.42,12.82-7,15.64-7.62S610.87,393.7,607.29,397.31Z" fill="#4556c4" data-primary="true"/>
<path d="M607.29,397.31s-10,3.6-11.62,6-2.8,6.42-.4,6.42,12.82-7,15.64-7.62S610.87,393.7,607.29,397.31Z" opacity="0.2"/>
<path d="M595.66,355.3a34.88,34.88,0,0,0,6.19,14.32c5,6.57,10,5,8.88,10.43s-9.66,13.13-6.18,21.64,11.2,10,12.74,13.51,5,4.64,1.16,18.54-9.66,25.11-4.63,38.24S632,488.6,642,484s3.86-19.31,6.18-28.2,22.4-15.83,15.45-40.56-23.22-31.29-27.45-39.78-3.48-22.79-12.35-28.59-18.94-.77-22.41,0-5.41-5-12.36-2.32-10.17,16.06,2.19,18.76A42.63,42.63,0,0,1,595.66,355.3Z" fill="#2f2e41" data-secondary="true"/>
<path d="M608.43,373.84a26.27,26.27,0,0,0,8.53,5.88c14.43,6.33,24.35,15.34,24.35,30.67s-14.43,25.73-14.88,38.75,6.77,23,14.44,19,4-12.18,1.35-12.18" fill="none" stroke="#fff" stroke-linecap="round" stroke-linejoin="round" stroke-width="0.5"/>
<path d="M601.63,359.38a23.23,23.23,0,0,0,2.26,7.78" fill="none" stroke="#fff" stroke-linecap="round" stroke-linejoin="round" stroke-width="0.5"/>
<path d="M648.63,402.13c2.39,5.59,4.63,12.9,4.41,20.4-.44,15.83-19.39,23-21.65,32.47-2,8.52,4.07,16.24,9.5,13.09" fill="none" stroke="#fff" stroke-linecap="round" stroke-linejoin="round" stroke-width="0.5"/>
<path d="M621.92,422.53a29.46,29.46,0,0,0-.45-18.49c-3.61-9.5-7.66-14-7.66-19" fill="none" stroke="#fff" stroke-linecap="round" stroke-linejoin="round" stroke-width="0.5"/>
<path d="M595.66,355.3a8,8,0,0,0-6.67-4c-4.5,0-4,5.86.91,6.76" fill="none" stroke="#fff" stroke-linecap="round" stroke-linejoin="round" stroke-width="0.5"/>
<path d="M598.52,415.5s-5,12.48-5,19.56S591,463.75,591,463.75s-19.55,15.83-26.2,20.38a86.28,86.28,0,0,0-10,7.79h-.12l-11.35,3.17s-9.5,8.44-8.84,10.55,4.22-.35,4.22-.35,11.32-1.77,14.84-3.53a14.61,14.61,0,0,0,5-3.72s34.1-14,38.26-15.28a63.26,63.26,0,0,0,9.56-4.16s6.24-30.35,8.32-39.91c1.92-8.84,3.49-17.32.1-21.84" fill="#f9b499"/>
<path d="M599,414.51s-5.48,13.47-5.48,20.55S591,463.75,591,463.75s-7.87,6.33-15.33,12.18l11.5,10.63c4.7-1.87,8.44-3.32,9.65-3.69a64.23,64.23,0,0,0,9.56-4.15s6.24-30.35,8.32-39.91c1.92-8.85,3.49-17.32.1-21.84" fill="#4556c4" data-primary="true"/>
<path d="M424.08,488,444.7,565.9s.29,8.59,4.29,15.18l5.63,65.6s4.29,6.58,19.75,0c0,0,.68-47-5.05-76.2l-4.86-55.64a84.08,84.08,0,0,0-.86-26.25Z" fill="#2f2e41" data-secondary="true"/>
<g clip-path="url(#f7e45956-7fdc-468e-9ca9-0d3ae9b0b66b)">
<path d="M457.86,495.52c-2.81,1-5.89,1.58-8.62,2.29a4.87,4.87,0,0,1-.52.12c-2.36,5.72-4.72,11.45-7.36,17.11-3.12,6.64-7.11,15-7.24,22.9a4.87,4.87,0,0,1,4.23,4,54,54,0,0,0,1.15,5.49c.69,2.12,1.52,4.1,2.05,6.3.14.58.28,1.15.4,1.71-.3-12.42-1.05-24.5,7.27-35.37C455.28,512.29,457.26,502.47,457.86,495.52Z" opacity="0.5" style="isolation:isolate"/>
</g>
<path d="M455.81,646.64s-9.93,4.58-13.49,4.58c-2.44,0-7-2.46-9.16,3.26,0,0-2.59,5,13.1,6.87a165.18,165.18,0,0,0,30,.22,2.19,2.19,0,0,0,2-2.34,2,2,0,0,0,0-.24l-.19-1s-.39-7.51-5.06-11.28Z" fill="#4556c4" data-primary="true"/>
<path d="M443.41,658.45c-10.21-2-10-4.8-10-4.8h0c-.12.25-.24.51-.35.79,0,0-2.59,5,13.1,6.87a164.39,164.39,0,0,0,30,.22,2.18,2.18,0,0,0,2-2.34l0-.23-.08-.38-9.31.83S453.6,660.43,443.41,658.45Z" fill="#2f2e41" data-secondary="true"/>
<path d="M404.34,484.84s-5.15,13.45,4.29,71c0,0-1.71,5.44,1.72,16.33l4.58,36.93v36.65s3.15,7.73,21.76,0c0,0,.58-65-1.43-78.74l4.39-41.94a14,14,0,0,1,5.73-9.86c4.08-3,9.33-9.32,10.19-22.12Z" fill="#2f2e41" data-secondary="true"/>
<path d="M416.22,645s-11,5-14.89,5c-2.69,0-7.73-2.71-10.16,3.59,0,0-2.86,5.58,14.45,7.58a182.52,182.52,0,0,0,33.14.25,2.4,2.4,0,0,0,2.19-2.58,2.51,2.51,0,0,0,0-.27l-.21-1.14s-.43-8.31-5.59-12.45Z" fill="#4556c4" data-primary="true"/>
<path d="M402.52,658.06c-11.26-2.19-11-5.28-11-5.28h0a6.79,6.79,0,0,0-.39.87s-2.86,5.58,14.45,7.58a182.52,182.52,0,0,0,33.14.26,2.41,2.41,0,0,0,2.19-2.58,2.36,2.36,0,0,0,0-.28l-.08-.41-10.31.92S413.79,660.26,402.52,658.06Z" fill="#2f2e41" data-secondary="true"/>
<path d="M426.91,340s-9.26,4.15-10,0a12.69,12.69,0,0,0,5.62-4.3c2.29-3.15,13.74-2.29,13.74-2.29s20.2-1.89,17.62,8.44c0,0,8,7.57,1.14,18.6s-10.83,14.72-10.83,14.72L437.36,374l-9.55-29.05Z" fill="#2f2e41" data-secondary="true"/>
<path d="M421.15,350.06c.79-1.68,5.73-11.9,5.73-11.9s7.67,4.21,7.42,6.52-2.43,4.47-.64,6.4,4.23,7.1,3.43,9.56l1.15.8s.64-4.58,3.21-5.37,4.58,4.34,2.8,7.93-3.83,2.94-3.83,2.94,1,6.15,3.71,8.19l.81,6.4-16.62,1.15v-4.34s-7.43,1.14-8.45-.77a10.05,10.05,0,0,1-.51-1.22,32.85,32.85,0,0,1-.59-19.6A41.15,41.15,0,0,1,421.15,350.06Z" fill="#f9b499"/>
<path d="M470.9,407.64s21.63,44.52,17.05,51.42-24.34,29.5-24.34,29.5l-8-9.16,16-27.22-8.31-16.88S459.6,422.06,470.9,407.64Z" fill="#92e3a9"/>
<g clip-path="url(#acb2851e-f025-4887-9bcf-425dd905751b)">
<path d="M471.88,437.88c1.23-6.87.27-19.47,0-22.26a220.33,220.33,0,0,1-5.1,25.19,5.8,5.8,0,0,1-.4,1.15c2.06,3.23,4.5,6.28,4.15,10.37s-4.34,9.42-6.67,12.85a5.91,5.91,0,0,1-.92,1.08,5.28,5.28,0,0,1,.45,1.07c1,3.26.81,6.61.84,10,2.79-17,13-22.33,13.84-26.18C479.14,446.45,470.48,445.61,471.88,437.88Z" opacity="0.2" style="isolation:isolate"/>
</g>
<path d="M470.9,407.64s21.63,44.52,17.05,51.42-24.34,29.5-24.34,29.5l-8-9.16,16-27.22-8.31-16.88S459.6,422.06,470.9,407.64Z" fill="#4556c4" data-primary="true"/>
<path d="M423.24,389.2l5.15-8.42s14.32-5.86,21.47,0l4,11.29Z" fill="#4556c4" data-primary="true"/>
<path d="M423.24,389.2l5.15-8.42s14.32-5.86,21.47,0l4,11.29Z" opacity="0.2" style="isolation:isolate"/>
<path d="M402.62,487.52l4.27-35.13-1.73-52.68a10.3,10.3,0,0,1,7.47-10.31c14.55-4.22,45.69-9.39,58.27,18.26a12.49,12.49,0,0,1,1,7.38l-8.56,49.19,2.29,26.84S437.74,511.57,402.62,487.52Z" fill="#4556c4" data-primary="true"/>
<g clip-path="url(#a0368c2b-f4d1-4dd3-a123-e240c7a3a0cc)">
<path d="M438.55,484.84c-.71-10.31,17.9-14.32,17-18.57s-14-2-14-6.24-34.85-13.24-26.88-32.74a43,43,0,0,0,3.54-16.3,89.26,89.26,0,0,1-12.6,13.18,5.94,5.94,0,0,1,.29,2.61c0,.13.1.25.14.38a21.8,21.8,0,0,1,.18,8.92,7.08,7.08,0,0,1-.1,1.78,64,64,0,0,1,.5,10.17,3.89,3.89,0,0,0,.13.82,6.25,6.25,0,0,1-.1,2.62,5.33,5.33,0,0,1,.1,3.59c-.21.65-.43,1.3-.65,2a4.54,4.54,0,0,1,.14,1c.21,5.19-.9,10.31-1.78,15.36-.83,4.71-1,9.53-1.86,14.22a5.76,5.76,0,0,1,1.62,1.15c3,3,8.46,5,12.4,6.5a73.93,73.93,0,0,0,14.19,3.72,43.71,43.71,0,0,0,28.75-4.82C456,494.23,439.19,494.08,438.55,484.84Z" opacity="0.2" style="isolation:isolate"/>
</g>
<path d="M353.84,411.16l-13.74-5s-3.61-9.42-6.2-11.36-5.72-5.73-6.57-4.29c-.61,1,1,3.74,3.17,5.63,2.38,2,1.35,4.65.86,5.72s-4.32,2.84-7.41,3.93-10.31-1.6-12.15.27,2.9,2.49,2.9,2.49-3.53.25-3.85,2.29c-.18,1.23,3.33.46,5.08.28s5.35-.42,5.35-.42-6.09,2.12-5.64,3.82,4.7-.88,8.24-1.49c0,0-4.75,2.36-4.12,3.94s2.91-.7,7-2.29l8.54-2,13.89,7.58Z" fill="#f9b499"/>
<path d="M411.17,390.54a2.43,2.43,0,0,0-2.65.6L384,417.3l-40.28-11.12-4.45,11.22s30.55,17.1,46.08,16.16c11.79-.72,26.2-13.4,32.46-19.47a8.85,8.85,0,0,0,2.54-7.91" fill="#4556c4" data-primary="true"/>
<path d="M347.74,416.21a1.36,1.36,0,1,1-1.57-1.14,1.34,1.34,0,0,1,1.56,1.1Z" fill="#fff"/>
<path d="M383.55,425.05c1.31-3.38-.48-6.16,1.35-6.48s2,5.47,5,5.39" fill="none" stroke="#000" stroke-miterlimit="10" opacity="0.2" style="isolation:isolate"/>
<path d="M749.6,577.83s25.31-76.11-6.47-5.82c0,0-11.21-61.18-8.28,5.58,0,0-32.77-51.23-5.14,11.11,0,0-42.52-45.34,1.38,13.74,0,0,85.76-4.3,19.13-7.23,0,0,77.56-32.86,3.63-9.24C753.85,586,820,520.53,749.6,577.83Z" fill="#2f2e41" data-secondary="true"/>
<path d="M749.6,577.83s25.31-76.11-6.47-5.82c0,0-11.21-61.18-8.28,5.58,0,0-32.77-51.23-5.14,11.11,0,0-42.52-45.34,1.38,13.74,0,0,85.76-4.3,19.13-7.23,0,0,77.56-32.86,3.63-9.24C753.85,586,820,520.53,749.6,577.83Z" opacity="0.2"/>
<path d="M721,628.93h-.11a.46.46,0,0,1-.34-.56c6.13-24.72,23.13-48.87,23.3-49.11a.45.45,0,0,1,.64-.11.47.47,0,0,1,.11.65c-.17.24-17.07,24.25-23.15,48.79A.46.46,0,0,1,721,628.93Z" fill="#2f2e41" data-secondary="true"/>
<path d="M697.53,580.27s-59.68-47-7.28,3.89c0,0-58.09-9.67,2.31,9.17,0,0-56.17,12.73,8.27,8.15,0,0-54.06,23.31,12.7,3.19,0,0,23.71-77.78-.31-19.36,0,0-4.35-79.67-7.05-6.17C706.17,579.11,669,499.19,697.53,580.27Z" fill="#2f2e41" data-secondary="true"/>
<path d="M697.53,580.27s-59.68-47-7.28,3.89c0,0-58.09-9.67,2.31,9.17,0,0-56.17,12.73,8.27,8.15,0,0-54.06,23.31,12.7,3.19,0,0,23.71-77.78-.31-19.36,0,0-4.35-79.67-7.05-6.17C706.17,579.11,669,499.19,697.53,580.27Z" fill="#fff" opacity="0.3" style="isolation:isolate"/>
<path d="M725.62,631.21a.46.46,0,0,1-.44-.33c-10.53-35.15-29.19-44.16-29.38-44.25a.46.46,0,0,1-.22-.62.45.45,0,0,1,.61-.22c.19.09,19.21,9.24,29.88,44.83a.48.48,0,0,1-.31.58Z" fill="#2f2e41" data-secondary="true"/>
<path d="M731.36,601.69a.28.28,0,0,1-.15,0,.3.3,0,0,1-.15-.21c-2-9.55-9.52-16.71-9.6-16.78a.31.31,0,0,1,.43-.45c.07.07,7.57,7.19,9.7,16.77a59.19,59.19,0,0,1,22.65-3,.3.3,0,0,1,.28.33.29.29,0,0,1-.32.29,58.57,58.57,0,0,0-22.74,3Z" fill="#2f2e41" data-secondary="true"/>
<path d="M731.36,601.69a.33.33,0,0,1-.16-.05.32.32,0,0,1-.14-.32c3.58-17.91-1.49-24.37-1.54-24.43a.31.31,0,0,1,.48-.4c.21.27,5.17,6.53,1.81,24.2L751.31,587a.31.31,0,1,1,.35.5l-20.12,14.11A.28.28,0,0,1,731.36,601.69Z" fill="#2f2e41" data-secondary="true"/>
<path d="M698.13,606.48a.3.3,0,0,1-.28-.18.32.32,0,0,1,.15-.41c5.24-2.45,12.78-3.5,14.31-3.69a43.84,43.84,0,0,1,3.16-17,.32.32,0,0,1,.41-.17.31.31,0,0,1,.17.4,43.26,43.26,0,0,0-3.12,17,.29.29,0,0,1-.27.31c-.09,0-8.66,1-14.4,3.68A.28.28,0,0,1,698.13,606.48Z" fill="#2f2e41" data-secondary="true"/>
<path d="M712.61,602.78a.32.32,0,0,1-.2-.08c-.06-.05-5.63-4.88-19.89-5.68a.31.31,0,0,1,0-.61c11.13.62,17,3.59,19.2,5a58.68,58.68,0,0,1-5.62-18.35.31.31,0,1,1,.62-.08,57.86,57.86,0,0,0,6.14,19.3.31.31,0,0,1-.09.39A.32.32,0,0,1,712.61,602.78Z" fill="#2f2e41" data-secondary="true"/>
<path d="M705.23,625.74h35.6l-5.47,33.33h-1.72v1.34a1.74,1.74,0,0,1-1.72,1.74h-1.67a1.73,1.73,0,0,1-1.72-1.73h0v-1.34h-11v1.34a1.74,1.74,0,0,1-1.74,1.74h-1.66a1.75,1.75,0,0,1-1.73-1.74v-1.34h-1.72Z" fill="#2f2e41" data-secondary="true"/>
<path d="M569.22,641s-16.22,5.41-20.05,6.56-7.34,1.93-3.86,5.8,20.47,4.22,25.49,4.22,8.49,2.7,9.65-.39,1.16-11.61,1.16-11.61Z" fill="#4556c4" data-primary="true"/>
<path d="M580.9,655.35c-4.32-.14-12.48-.54-22.17-1.78-7.8-1.06-12.3-2.42-14.78-3.51-.35.77-.06,1.81,1.29,3.3,3.47,3.86,20.48,4.22,25.49,4.22s8.5,2.7,9.66-.39A11.66,11.66,0,0,0,580.9,655.35Z" fill="#3f3d56"/>
</svg>